<svg xmlns="http://www.w3.org/2000/svg" width="48" height="47" viewBox="0 0 48 47"><defs><style>.a{fill:#14060b;}.b{fill:#fff;}</style></defs><g transform="translate(-1614 -49)"><ellipse class="a" cx="24" cy="23.5" rx="24" ry="23.5" transform="translate(1614 49)"/><g transform="translate(1365.556 -507.75)"><path class="b" d="M11.262,9.31h1.952V6.381h2.929V4.429H13.214V1.5H11.262V4.429H8.333V6.381h2.929ZM7.357,18.1A1.952,1.952,0,1,0,9.31,20.048,1.95,1.95,0,0,0,7.357,18.1Zm9.762,0a1.952,1.952,0,1,0,1.952,1.952A1.95,1.95,0,0,0,17.119,18.1Zm-9.6-3.173.029-.117.879-1.591H15.7a1.943,1.943,0,0,0,1.708-1.005L21.18,5.366l-1.7-.937h-.01L18.4,6.381,15.7,11.262H8.851L8.724,11,6.537,6.381,5.61,4.429,4.692,2.476H1.5V4.429H3.452l3.514,7.409L5.649,14.23a1.887,1.887,0,0,0-.244.937,1.958,1.958,0,0,0,1.952,1.952H19.071V15.167H7.767A.248.248,0,0,1,7.523,14.923Z" transform="translate(261.224 568.75)"/></g></g></svg>