<svg xmlns="http://www.w3.org/2000/svg" xmlns:xlink="http://www.w3.org/1999/xlink" width="748.022" height="391.583" viewBox="0 0 748.022 391.583"><defs><style>.a{fill:none;}.b{clip-path:url(#a);}.c{fill:#14060b;}</style><clipPath id="a"><rect class="a" width="748.022" height="391.583"/></clipPath></defs><g transform="translate(-143 -421.485)"><g transform="translate(143 421.485)"><g class="b"><path d="M243.627,129.727c-2.219,4.605-5.321,7.46-13.922,7.46-10.846,0-17.06-5.763-17.06-15.822V78.936c0-15.168-5.507-31.38-20.949-31.38-14.426,0-25.024,15.955-25.192,37.93V128.26a3.3,3.3,0,0,0,.7,2.387c.875.849,2.855.787,4.773.734.5-.009,1.008-.027,1.511-.027a1.324,1.324,0,0,1,1.326,1.326v1.238a1.324,1.324,0,0,1-1.326,1.326H142.726a1.324,1.324,0,0,1-1.326-1.326v-1.238a1.324,1.324,0,0,1,1.326-1.326c.5,0,1.008.018,1.512.027,1.918.053,3.9.115,4.773-.734a3.3,3.3,0,0,0,.7-2.387V13.348c0-4.747-2.024-5.215-6.983-5.215A1.324,1.324,0,0,1,141.4,6.807V5.923a1.325,1.325,0,0,1,1.061-1.3l22.452-4.6a1.327,1.327,0,0,1,1.591,1.3V56.307a19.377,19.377,0,0,0,.168,2.873c5.436-10.925,14.3-16.927,25.024-16.927,23.99,0,37.744,13.374,37.744,36.683v42.429c0,8.839,1.335,10.519,3.8,10.519,3.368,0,4.19-1.609,5.047-3.315.186-.362.354-.689.53-.99,1.441-2.4,3.1-2.051,3.757-1.786a2.286,2.286,0,0,1,1.308,1.317,3.448,3.448,0,0,1-.256,2.616" transform="translate(-16.412 0)"/><path d="M114.779,36.05a1.336,1.336,0,0,1-1.017.468H111.11a1.328,1.328,0,0,1-1.309-1.1C106.3,15.3,98.717,15.3,92.017,15.3H68.195c-3.137.23-3.137,1-3.137,1.679V129.42a3.3,3.3,0,0,0,.7,2.387c.875.849,2.854.787,4.772.734.5-.009,1.009-.027,1.512-.027a1.325,1.325,0,0,1,1.326,1.326v1.238a1.325,1.325,0,0,1-1.326,1.326H41.28a1.324,1.324,0,0,1-1.326-1.326V133.84a1.324,1.324,0,0,1,1.326-1.326c.495,0,1.008.018,1.512.027,1.918.053,3.9.115,4.773-.734a3.3,3.3,0,0,0,.7-2.387V16.984c0-.681,0-1.45-3.139-1.679H23.071c-6.7,0-14.285,0-17.786,20.118a1.326,1.326,0,0,1-1.307,1.1H1.325A1.331,1.331,0,0,1,.309,36.05a1.362,1.362,0,0,1-.292-1.078L4.083,11.106A1.329,1.329,0,0,1,5.392,10H109.7a1.328,1.328,0,0,1,1.307,1.1l4.066,23.866a1.362,1.362,0,0,1-.291,1.078" transform="translate(0 -1.161)"/><path d="M332.327,59.133C325.636,51.717,316.186,47.8,305,47.8c-24.953,0-40.4,24.635-40.4,47.467s15.442,47.467,40.4,47.467c13.851,0,24.158-4.711,30.566-13.948a2.74,2.74,0,0,0,.389-2.882,2.538,2.538,0,0,0-2.21-1.494,3.211,3.211,0,0,0-2.811,1.777c-4.013,5.427-8.309,7.354-16.388,7.354-15.239,0-31.4-13.657-32.794-39.689,0-1.485,0-1.679,2.387-1.679h56.572a1.323,1.323,0,0,0,1.317-1.193c1.22-11.862-2.4-23.76-9.7-31.848m-9.653,27.738H284.842c-1.1,0-1.874-.08-2.272-.5-.336-.354-.725-1.22-.645-3.394C283.764,64.269,292.391,53.1,305,53.1c11.924,0,19.367,9.794,20.419,26.819.115,4.093-.619,5.737-1.264,6.391a1.926,1.926,0,0,1-1.476.557" transform="translate(-30.712 -5.548)"/><path d="M513.334,113.516c0,.009-.009.018-.018.035-8.5,15.955-24.007,24.388-44.833,24.388-33.9,0-54.883-33.722-54.883-64.969C413.6,40.689,434.275,8,473.787,8c16.556,0,26.483,3.483,35.41,12.41a12.077,12.077,0,0,1,3.783,9.29,7.254,7.254,0,0,1-3.279,5.48,8.727,8.727,0,0,1-7.363,1.335,8.315,8.315,0,0,1-5.2-4.738C491.218,18.14,485.11,13.3,473.787,13.3c-29.568,0-43.039,30.107-43.039,58.074,0,34.694,25.3,55.423,49.757,55.423,12.905,0,22.646-5.507,28.171-15.911a4.374,4.374,0,0,1,2.351-2.351,2.268,2.268,0,0,1,1.8.239c2.157,1.441.955,3.836.5,4.738" transform="translate(-48.006 -0.929)"/><path d="M629.26,132.658a2.285,2.285,0,0,0-1.308-1.317c-.654-.265-2.316-.61-3.757,1.786-.177.3-.345.628-.53.981-.857,1.715-1.68,3.324-5.047,3.324-2.466,0-3.8-1.679-3.8-10.519V84.484c0-23.309-13.754-36.683-37.744-36.683-13.745,0-21.267,3.032-28.745,11.58a10.1,10.1,0,0,0-2.546,7.929,8.239,8.239,0,0,0,3.695,5.914,8.558,8.558,0,0,0,7.354,1.087,8.692,8.692,0,0,0,5.392-5.436c.61-1.573,1.114-3.058,1.6-4.49,2.475-7.275,3.836-11.279,13.25-11.279,11.173,0,16.344,8.636,18.7,15.814,1.043,3.81,1.008,5.949-1.891,8.556-5.631,4.906-14.037,7.452-22.169,9.909-15.4,4.658-31.318,9.476-31.318,30.16,0,17.307,14.983,25.192,28.9,25.192,12.852,0,23-8.4,28.728-23.689v7.867c0,10.059,6.214,15.822,17.06,15.822,8.609,0,11.712-2.855,13.913-7.452a3.419,3.419,0,0,0,.265-2.625m-58.2,4.773c-12.525,0-13.878-15.142-13.878-21.656,0-16.963,10.156-20.472,21.921-24.538,6.188-2.139,12.6-4.349,17.679-8.7a3.15,3.15,0,0,1,.893-.513,5.619,5.619,0,0,1,.345,2.457V85.9c0,31.309-10.581,51.533-26.96,51.533" transform="translate(-62.722 -5.548)"/><path d="M743.109,127.809a4.2,4.2,0,0,1-.381,1.83.029.029,0,0,1-.008.018c-1.883,4.517-4.977,7.531-13.949,7.531-14.859,0-23.053-4.747-26.6-30.672-1.839-13.825-6.17-22.434-12.525-24.9-1.273-.327-2.413.053-4.022,1.326l-8.556,8.2a8.393,8.393,0,0,0-1.777,5.295V128.26a3.3,3.3,0,0,0,.7,2.387c.876.849,2.855.787,4.773.734.5-.009,1.008-.027,1.512-.027a1.325,1.325,0,0,1,1.326,1.326v1.238a1.325,1.325,0,0,1-1.326,1.326H651.515a1.324,1.324,0,0,1-1.326-1.326v-1.238a1.324,1.324,0,0,1,1.326-1.326c.5,0,1.008.018,1.512.027,1.918.053,3.9.115,4.773-.734a3.3,3.3,0,0,0,.7-2.387V13.348c0-4.747-2.024-5.215-6.983-5.215a1.324,1.324,0,0,1-1.326-1.326V5.923a1.325,1.325,0,0,1,1.061-1.3L673.7.027a1.327,1.327,0,0,1,1.591,1.3V84.063a11.175,11.175,0,0,0,.133,2.121,6.794,6.794,0,0,0,.672-.468l37.213-35.375a.781.781,0,0,1,.187-.239,10.355,10.355,0,0,0,1.572-1.8,19.128,19.128,0,0,0-2.97-.062c-.522.009-1.043.027-1.537.027a1.339,1.339,0,0,1-1.229-.822A1.324,1.324,0,0,1,709.625,46l1.237-1.238a1.327,1.327,0,0,1,.937-.389h19.27a1.339,1.339,0,0,1,1.229.822,1.32,1.32,0,0,1-.292,1.441l-1.238,1.238a1.325,1.325,0,0,1-.937.389c-.477,0-.946-.009-1.414-.027-3.111-.08-5.8-.133-9.741,3.244L693.687,75.232a.362.362,0,0,0-.071.327c.1.265.583.636,1.635.84,14.585,2.334,22.125,11.809,23.7,29.824,1.953,21.294,6.754,25.661,13.356,25.661,3.217,0,4.729-2.758,5.374-3.934.08-.15.15-.283.2-.371,1.441-2.4,3.1-2.051,3.757-1.786a2.256,2.256,0,0,1,1.468,2.015" transform="translate(-75.466 0)"/><path d="M826.116,59.133C819.424,51.717,809.975,47.8,798.785,47.8c-24.953,0-40.4,24.635-40.4,47.467s15.442,47.467,40.4,47.467c13.851,0,24.158-4.711,30.566-13.948a2.739,2.739,0,0,0,.389-2.882,2.538,2.538,0,0,0-2.21-1.494,3.152,3.152,0,0,0-2.8,1.777c-4.022,5.427-8.318,7.354-16.4,7.354-15.239,0-31.4-13.657-32.794-39.689,0-1.485,0-1.679,2.386-1.679H834.5a1.324,1.324,0,0,0,1.317-1.193c1.22-11.862-2.4-23.76-9.7-31.848m-9.653,27.738H778.631c-1.1,0-1.874-.08-2.272-.5-.336-.354-.725-1.22-.645-3.394C777.553,64.269,786.18,53.1,798.785,53.1c11.924,0,19.367,9.794,20.419,26.819.115,4.093-.628,5.737-1.264,6.391a1.926,1.926,0,0,1-1.476.557" transform="translate(-88.024 -5.548)"/><path d="M333.388,372.257c-2.219,4.605-5.321,7.46-13.922,7.46-10.846,0-17.06-5.763-17.06-15.822v-74.25c0-1.75-.106-2.21-2.563-2.21h-6.718a1.324,1.324,0,0,1-1.326-1.326v-2.652a1.324,1.324,0,0,1,1.326-1.326c13.975,0,20.772-6.214,20.772-19a1.324,1.324,0,0,1,1.326-1.326h2.652a1.324,1.324,0,0,1,1.326,1.326v16.795c0,1.75.1,2.21,2.563,2.21h10.43a1.324,1.324,0,0,1,1.326,1.326v2.652a1.324,1.324,0,0,1-1.326,1.326h-10.43c-2.466,0-2.563.46-2.563,2.21V363.9c0,8.839,1.335,10.519,3.8,10.519,3.368,0,4.19-1.609,5.047-3.324.186-.354.354-.681.53-.981,1.441-2.4,3.1-2.051,3.757-1.786a2.286,2.286,0,0,1,1.308,1.317,3.455,3.455,0,0,1-.256,2.616" transform="translate(-33.868 -30.387)"/><path d="M182.87,372.659a2.311,2.311,0,0,0-1.308-1.317c-.654-.265-2.316-.61-3.757,1.786-.177.3-.345.628-.53.99-.857,1.706-1.679,3.315-5.047,3.315-2.466,0-3.8-1.68-3.8-10.519V324.484c0-23.309-13.754-36.683-37.744-36.683-13.745,0-21.267,3.032-28.745,11.58a10.1,10.1,0,0,0-2.546,7.929,8.239,8.239,0,0,0,3.695,5.914,8.554,8.554,0,0,0,7.354,1.087,8.692,8.692,0,0,0,5.392-5.436c.61-1.573,1.114-3.058,1.6-4.49,2.475-7.275,3.836-11.279,13.25-11.279,11.173,0,16.344,8.636,18.7,15.814,1.043,3.81,1.008,5.949-1.892,8.556-5.631,4.906-14.037,7.452-22.169,9.909C109.919,332.042,94,336.859,94,357.543c0,17.307,14.983,25.192,28.9,25.192,12.852,0,23-8.4,28.728-23.689v7.867c0,10.059,6.214,15.822,17.06,15.822,8.609,0,11.712-2.855,13.913-7.452a3.419,3.419,0,0,0,.265-2.625m-58.2,4.773c-12.525,0-13.878-15.142-13.878-21.656,0-16.963,10.156-20.472,21.922-24.538,6.188-2.139,12.6-4.349,17.679-8.7a3.15,3.15,0,0,1,.893-.513,5.619,5.619,0,0,1,.345,2.457V325.9c0,31.309-10.581,51.533-26.96,51.533" transform="translate(-10.91 -33.404)"/><path d="M84.023,275.423C80.522,255.3,72.939,255.3,66.239,255.3h-36.2c-3.138.23-3.138,1-3.138,1.679v44.727c0,.681,0,1.45,3.138,1.679H49.974c7.6,0,8.4-3.209,8.4-10.519a1.324,1.324,0,0,1,1.326-1.326h1.238a1.324,1.324,0,0,1,1.326,1.326v26.341a1.324,1.324,0,0,1-1.326,1.326H59.7a1.324,1.324,0,0,1-1.326-1.326c0-7.31-.8-10.519-8.4-10.519H30.042c-3.138.23-3.138,1-3.138,1.679V369.42a3.263,3.263,0,0,0,.7,2.387c.875.849,2.855.787,4.773.734.5-.009,1.008-.026,1.512-.026a1.324,1.324,0,0,1,1.326,1.326v1.238a1.324,1.324,0,0,1-1.326,1.326H3.126A1.324,1.324,0,0,1,1.8,375.077V373.84a1.324,1.324,0,0,1,1.326-1.326c.5,0,1.008.018,1.512.026,1.918.053,3.9.115,4.773-.734a3.3,3.3,0,0,0,.7-2.387V256.984a3.3,3.3,0,0,0-.7-2.387c-.875-.849-2.855-.787-4.773-.734-.5.009-1.017.027-1.512.027A1.324,1.324,0,0,1,1.8,252.564v-1.238A1.324,1.324,0,0,1,3.126,250H83.917a1.327,1.327,0,0,1,1.307,1.1l4.067,23.866A1.366,1.366,0,0,1,89,276.05a1.334,1.334,0,0,1-1.017.469H85.331a1.327,1.327,0,0,1-1.307-1.1" transform="translate(-0.209 -29.017)"/><path d="M272.789,368.76c-6.462,9.273-16.751,13.975-30.593,13.975-24.953,0-40.4-24.635-40.4-47.467S217.242,287.8,242.2,287.8c14.717,0,23.627,3.624,28.869,11.747,3.456,5.3,2.935,10.925-1.273,13.675a8.558,8.558,0,0,1-7.354,1.087,8.712,8.712,0,0,1-5.4-5.454c-3.58-9.211-6.753-15.752-14.841-15.752-14.231,0-23.424,14.47-23.424,36.86,0,28.3,16.989,43.578,32.971,43.578,8.079,0,12.375-1.927,16.388-7.354a3.211,3.211,0,0,1,2.811-1.777,2.537,2.537,0,0,1,2.21,1.494,2.744,2.744,0,0,1-.362,2.855" transform="translate(-23.422 -33.404)"/><path d="M388.795,287.8c-24.952,0-40.395,24.635-40.395,47.467s15.442,47.467,40.395,47.467,40.4-24.635,40.4-47.467-15.442-47.467-40.4-47.467m-23.432,50.817c-2.829-20.092,3.111-43.083,17.6-45.169a15.145,15.145,0,0,1,1.989-.133c13.728,0,24.548,19.084,27.278,38.6,2.82,20.092-3.111,43.074-17.608,45.169-14.656,1.953-26.394-18.023-29.257-38.469" transform="translate(-40.438 -33.404)"/><path d="M630.582,291.848l-.53,1.237a1.334,1.334,0,0,1-1.22.8c-.522,0-1.043-.018-1.565-.027-3.191-.1-5.091-.044-6.435,2.121l-34.076,88.809c-13.966,36.507-33.333,40.449-41.014,40.449-10.192,0-14.832-4.34-14.832-8.371,0-2.316,1.485-4.508,4.075-6.02,2.7-1.573,6.47-2.4,10.934-2.4.513,0,1.061.009,1.635.018,9.149.115,24.4.3,33.89-24.149l-33.89-87.987c-1.512-2.484-3.456-2.555-6.718-2.466q-.729.026-1.458.027a1.315,1.315,0,0,1-1.273-.964l-.354-1.238A1.323,1.323,0,0,1,539.025,290h30.584a1.316,1.316,0,0,1,1.273.964l.354,1.237a1.323,1.323,0,0,1-1.273,1.688q-.7,0-1.432-.027c-1.476-.035-3.721-.088-4.19.5a1.6,1.6,0,0,0-.009,1.167l25.608,66.7,25.431-66.366a1.934,1.934,0,0,0,.026-1.467c-.477-.61-2.66-.557-4.252-.521-.477.009-.946.018-1.405.018a1.326,1.326,0,0,1-1.22-1.847l.53-1.237a1.333,1.333,0,0,1,1.22-.8h19.093a1.326,1.326,0,0,1,1.22,1.847" transform="translate(-61.621 -33.66)"/><path d="M520.332,294.961c0,7.867-8.982,7.867-11.933,7.867-.717,0-1.468-.009-2.237-.018-7.079-.071-15.892-.159-21.726,5.569-4.278,4.216-6.479,11.235-6.532,20.887v44.541a3.263,3.263,0,0,0,.7,2.387c.875.849,2.855.787,4.772.734.5-.009,1.008-.027,1.512-.027a1.324,1.324,0,0,1,1.326,1.326v1.237a1.324,1.324,0,0,1-1.326,1.326H454.125a1.325,1.325,0,0,1-1.326-1.326v-1.237a1.325,1.325,0,0,1,1.326-1.326c.5,0,1.009.018,1.512.027,1.918.053,3.9.115,4.773-.734a3.3,3.3,0,0,0,.7-2.387V301.148c0-4.747-2.024-5.215-6.984-5.215a1.325,1.325,0,0,1-1.326-1.326v-.884a1.325,1.325,0,0,1,1.062-1.3l22.452-4.6a1.327,1.327,0,0,1,1.591,1.3v17.5c0,.159,0,.3.009.442a37.45,37.45,0,0,1,32.255-19.27c2.509,0,10.165,0,10.165,7.16" transform="translate(-52.555 -33.404)"/></g></g><g transform="translate(749.317 668.464)"><path class="c" d="M132.946,72.3C86.051,83.565,77.8,92.695,67.63,144.6,57.455,92.695,49.207,83.565,2.313,72.3,49.207,61.039,57.455,51.909,67.63,0,77.8,51.909,86.051,61.039,132.946,72.3" transform="translate(0.487)"/><path class="c" d="M124.227,25.023c-14.773,3.548-17.373,6.425-20.577,22.777-3.206-16.352-5.805-19.23-20.577-22.777,14.772-3.548,17.37-6.425,20.577-22.777,3.2,16.352,5.8,19.23,20.577,22.777" transform="translate(17.478 0.473)"/><path class="c" d="M24.979,94.133c-8.967,2.155-10.544,3.9-12.489,13.826C10.544,98.033,8.967,96.287,0,94.133c8.967-2.152,10.544-3.9,12.49-13.824,1.945,9.926,3.522,11.672,12.489,13.824" transform="translate(0 16.897)"/></g></g></svg>